<mxfile host="6pn">
  <diagram id="LWq" name="Samples">
    <mxGraphModel dx="0" dy="0" background="#FFFAFA" grid="0" gridSize="10" guides="1" tooltips="1" connect="1" arrows="1" fold="1" page="1" pageScale="1" pageWidth="1169" pageHeight="827" math="0" shadow="0">
      <root>
        <mxCell id="page_root_LWq" parent="LWq"/>
        <mxCell id="node_root_LWq" parent="page_root_LWq"/>
        <mxCell id="LWq-2" value="67" style="whiteSpace=wrap;html=1;fillColor=#dae8fc;strokeColor=#6c8ebf;fontColor=#333333;shape=actor" vertex="1" parent="node_root_LWq">
          <mxGeometry x="140" y="135" width="40" height="50" as="geometry"/>
        </mxCell>
        <mxCell id="LWq-3" value="68" style="whiteSpace=wrap;html=1;fillColor=#dae8fc;strokeColor=#6c8ebf;fontColor=#333333;shape=actor" vertex="1" parent="node_root_LWq">
          <mxGeometry x="360" y="135" width="40" height="50" as="geometry"/>
        </mxCell>
        <mxCell id="LWq-4" value="69" style="whiteSpace=wrap;html=1;fillColor=#d5e8d4;strokeColor=#82b366;fontColor=#333333;shape=actor" vertex="1" parent="node_root_LWq">
          <mxGeometry x="580" y="135" width="40" height="50" as="geometry"/>
        </mxCell>
        <mxCell id="LWq-5" value="70" style="whiteSpace=wrap;html=1;fillColor=#dae8fc;strokeColor=#6c8ebf;fontColor=#333333;shape=actor" vertex="1" parent="node_root_LWq">
          <mxGeometry x="800" y="135" width="40" height="50" as="geometry"/>
        </mxCell>
        <mxCell id="LWq-6" value="71" style="whiteSpace=wrap;html=1;fillColor=#dae8fc;strokeColor=#6c8ebf;fontColor=#333333;shape=actor" vertex="1" parent="node_root_LWq">
          <mxGeometry x="1020" y="135" width="40" height="50" as="geometry"/>
        </mxCell>
        <mxCell id="LWq-7" value="72" style="whiteSpace=wrap;html=1;fillColor=#ffe6cc;strokeColor=#d79b00;fontColor=#333333;shape=actor" vertex="1" parent="node_root_LWq">
          <mxGeometry x="140" y="355" width="40" height="50" as="geometry"/>
        </mxCell>
        <mxCell id="LWq-8" value="73" style="whiteSpace=wrap;html=1;fillColor=#dae8fc;strokeColor=#6c8ebf;fontColor=#333333;shape=actor" vertex="1" parent="node_root_LWq">
          <mxGeometry x="360" y="355" width="40" height="50" as="geometry"/>
        </mxCell>
        <mxCell id="LWq-9" value="74" style="whiteSpace=wrap;html=1;fillColor=#dae8fc;strokeColor=#6c8ebf;fontColor=#333333;shape=actor" vertex="1" parent="node_root_LWq">
          <mxGeometry x="580" y="355" width="40" height="50" as="geometry"/>
        </mxCell>
        <mxCell id="LWq-10" value="75" style="whiteSpace=wrap;html=1;fillColor=#d5e8d4;strokeColor=#82b366;fontColor=#333333;shape=actor" vertex="1" parent="node_root_LWq">
          <mxGeometry x="800" y="355" width="40" height="50" as="geometry"/>
        </mxCell>
        <mxCell id="LWq-11" value="76" style="whiteSpace=wrap;html=1;fillColor=#dae8fc;strokeColor=#6c8ebf;fontColor=#333333;shape=actor" vertex="1" parent="node_root_LWq">
          <mxGeometry x="1020" y="355" width="40" height="50" as="geometry"/>
        </mxCell>
        <mxCell id="LWq-12" value="77" style="whiteSpace=wrap;html=1;fillColor=#dae8fc;strokeColor=#6c8ebf;fontColor=#333333;shape=actor" vertex="1" parent="node_root_LWq">
          <mxGeometry x="140" y="575" width="40" height="50" as="geometry"/>
        </mxCell>
        <mxCell id="LWq-13" value="78" style="whiteSpace=wrap;html=1;fillColor=#d5e8d4;strokeColor=#82b366;fontColor=#333333;shape=actor" vertex="1" parent="node_root_LWq">
          <mxGeometry x="360" y="575" width="40" height="50" as="geometry"/>
        </mxCell>
        <mxCell id="LWq-14" value="79" style="whiteSpace=wrap;html=1;fillColor=#dae8fc;strokeColor=#6c8ebf;fontColor=#333333;shape=actor" vertex="1" parent="node_root_LWq">
          <mxGeometry x="580" y="575" width="40" height="50" as="geometry"/>
        </mxCell>
        <mxCell id="LWq-15" value="80" style="whiteSpace=wrap;html=1;fillColor=#dae8fc;strokeColor=#6c8ebf;fontColor=#333333;shape=cloud" vertex="1" parent="node_root_LWq">
          <mxGeometry x="740" y="520" width="160" height="160" as="geometry"/>
        </mxCell>
        <mxCell id="LWq-16" value="81" style="whiteSpace=wrap;html=1;fillColor=#d5e8d4;strokeColor=#82b366;fontColor=#333333;shape=actor" vertex="1" parent="node_root_LWq">
          <mxGeometry x="1020" y="575" width="40" height="50" as="geometry"/>
        </mxCell>
        <mxCell id="LWq-17" value="82" style="whiteSpace=wrap;html=1;fillColor=#dae8fc;strokeColor=#6c8ebf;fontColor=#333333;shape=actor" vertex="1" parent="node_root_LWq">
          <mxGeometry x="140" y="795" width="40" height="50" as="geometry"/>
        </mxCell>
        <mxCell id="LWq-18" value="83" style="whiteSpace=wrap;html=1;fillColor=#dae8fc;strokeColor=#6c8ebf;fontColor=#333333;shape=actor" vertex="1" parent="node_root_LWq">
          <mxGeometry x="360" y="795" width="40" height="50" as="geometry"/>
        </mxCell>
        <mxCell id="LWq-19" value="84" style="whiteSpace=wrap;html=1;fillColor=#ffe6cc;strokeColor=#d79b00;fontColor=#333333;shape=actor" vertex="1" parent="node_root_LWq">
          <mxGeometry x="580" y="795" width="40" height="50" as="geometry"/>
        </mxCell>
        <mxCell id="LWq-20" value="85" style="whiteSpace=wrap;html=1;fillColor=#dae8fc;strokeColor=#6c8ebf;fontColor=#333333;shape=actor" vertex="1" parent="node_root_LWq">
          <mxGeometry x="800" y="795" width="40" height="50" as="geometry"/>
        </mxCell>
        <mxCell id="LWq-21" value="86" style="whiteSpace=wrap;html=1;fillColor=#dae8fc;strokeColor=#6c8ebf;fontColor=#333333;shape=actor" vertex="1" parent="node_root_LWq">
          <mxGeometry x="1020" y="795" width="40" height="50" as="geometry"/>
        </mxCell>
        <mxCell id="LWq-22" value="87" style="whiteSpace=wrap;html=1;fillColor=#d5e8d4;strokeColor=#82b366;fontColor=#333333;shape=actor" vertex="1" parent="node_root_LWq">
          <mxGeometry x="140" y="1015" width="40" height="50" as="geometry"/>
        </mxCell>
        <mxCell id="LWq-23" value="88" style="whiteSpace=wrap;html=1;fillColor=#dae8fc;strokeColor=#6c8ebf;fontColor=#333333;shape=actor" vertex="1" parent="node_root_LWq">
          <mxGeometry x="360" y="1015" width="40" height="50" as="geometry"/>
        </mxCell>
        <mxCell id="LWq-24" value="89" style="whiteSpace=wrap;html=1;fillColor=#dae8fc;strokeColor=#6c8ebf;fontColor=#333333;shape=actor" vertex="1" parent="node_root_LWq">
          <mxGeometry x="580" y="1015" width="40" height="50" as="geometry"/>
        </mxCell>
        <mxCell id="LWq-25" value="90" style="whiteSpace=wrap;html=1;fillColor=#d5e8d4;strokeColor=#82b366;fontColor=#333333;shape=actor" vertex="1" parent="node_root_LWq">
          <mxGeometry x="800" y="1015" width="40" height="50" as="geometry"/>
        </mxCell>
        <mxCell id="LWq-26" value="91" style="whiteSpace=wrap;html=1;fillColor=#dae8fc;strokeColor=#6c8ebf;fontColor=#333333;shape=actor" vertex="1" parent="node_root_LWq">
          <mxGeometry x="1020" y="1015" width="40" height="50" as="geometry"/>
        </mxCell>
        <mxCell id="LWq-27" value="92" style="whiteSpace=wrap;html=1;fillColor=#dae8fc;strokeColor=#6c8ebf;fontColor=#333333;shape=actor" vertex="1" parent="node_root_LWq">
          <mxGeometry x="140" y="1235" width="40" height="50" as="geometry"/>
        </mxCell>
        <mxCell id="LWq-28" value="93" style="whiteSpace=wrap;html=1;fillColor=#d5e8d4;strokeColor=#82b366;fontColor=#333333;shape=actor" vertex="1" parent="node_root_LWq">
          <mxGeometry x="360" y="1235" width="40" height="50" as="geometry"/>
        </mxCell>
        <mxCell id="LWq-29" value="94" style="whiteSpace=wrap;html=1;fillColor=#dae8fc;strokeColor=#6c8ebf;fontColor=#333333;shape=actor" vertex="1" parent="node_root_LWq">
          <mxGeometry x="580" y="1235" width="40" height="50" as="geometry"/>
        </mxCell>
        <mxCell id="LWq-30" value="95" style="whiteSpace=wrap;html=1;fillColor=#dae8fc;strokeColor=#6c8ebf;fontColor=#333333;shape=actor" vertex="1" parent="node_root_LWq">
          <mxGeometry x="800" y="1235" width="40" height="50" as="geometry"/>
        </mxCell>
        <mxCell id="LWq-31" value="96" style="whiteSpace=wrap;html=1;fillColor=#ffe6cc;strokeColor=#d79b00;fontColor=#333333;shape=actor" vertex="1" parent="node_root_LWq">
          <mxGeometry x="1020" y="1235" width="40" height="50" as="geometry"/>
        </mxCell>
        <mxCell id="LWq-32" value="97" style="whiteSpace=wrap;html=1;fillColor=#dae8fc;strokeColor=#6c8ebf;fontColor=#333333;shape=actor" vertex="1" parent="node_root_LWq">
          <mxGeometry x="140" y="1455" width="40" height="50" as="geometry"/>
        </mxCell>
        <mxCell id="LWq-33" value="98" style="whiteSpace=wrap;html=1;fillColor=#dae8fc;strokeColor=#6c8ebf;fontColor=#333333;shape=actor" vertex="1" parent="node_root_LWq">
          <mxGeometry x="360" y="1455" width="40" height="50" as="geometry"/>
        </mxCell>
        <mxCell id="LWq-34" value="99" style="whiteSpace=wrap;html=1;fillColor=#d5e8d4;strokeColor=#82b366;fontColor=#333333;shape=actor" vertex="1" parent="node_root_LWq">
          <mxGeometry x="580" y="1455" width="40" height="50" as="geometry"/>
        </mxCell>
        <mxCell id="LWq-35" value="100" style="whiteSpace=wrap;html=1;fillColor=#dae8fc;strokeColor=#6c8ebf;fontColor=#333333;shape=cloud" vertex="1" parent="node_root_LWq">
          <mxGeometry x="740" y="1400" width="160" height="160" as="geometry"/>
        </mxCell>
        <mxCell id="LWq-36" value="101" style="whiteSpace=wrap;html=1;fillColor=#dae8fc;strokeColor=#6c8ebf;fontColor=#333333;shape=actor" vertex="1" parent="node_root_LWq">
          <mxGeometry x="1020" y="1455" width="40" height="50" as="geometry"/>
        </mxCell>
        <mxCell id="LWq-37" value="102" style="whiteSpace=wrap;html=1;fillColor=#d5e8d4;strokeColor=#82b366;fontColor=#333333;shape=actor" vertex="1" parent="node_root_LWq">
          <mxGeometry x="140" y="1675" width="40" height="50" as="geometry"/>
        </mxCell>
        <mxCell id="LWq-38" value="103" style="whiteSpace=wrap;html=1;fillColor=#dae8fc;strokeColor=#6c8ebf;fontColor=#333333;shape=actor" vertex="1" parent="node_root_LWq">
          <mxGeometry x="360" y="1675" width="40" height="50" as="geometry"/>
        </mxCell>
        <mxCell id="LWq-39" value="104" style="whiteSpace=wrap;html=1;fillColor=#dae8fc;strokeColor=#6c8ebf;fontColor=#333333;shape=actor" vertex="1" parent="node_root_LWq">
          <mxGeometry x="580" y="1675" width="40" height="50" as="geometry"/>
        </mxCell>
        <mxCell id="LWq-40" value="105" style="whiteSpace=wrap;html=1;fillColor=#d5e8d4;strokeColor=#82b366;fontColor=#333333;shape=actor" vertex="1" parent="node_root_LWq">
          <mxGeometry x="800" y="1675" width="40" height="50" as="geometry"/>
        </mxCell>
        <mxCell id="LWq-41" value="106" style="whiteSpace=wrap;html=1;fillColor=#dae8fc;strokeColor=#6c8ebf;fontColor=#333333;shape=actor" vertex="1" parent="node_root_LWq">
          <mxGeometry x="1020" y="1675" width="40" height="50" as="geometry"/>
        </mxCell>
        <mxCell id="LWq-42" value="107" style="whiteSpace=wrap;html=1;fillColor=#dae8fc;strokeColor=#6c8ebf;fontColor=#333333;shape=actor" vertex="1" parent="node_root_LWq">
          <mxGeometry x="140" y="1895" width="40" height="50" as="geometry"/>
        </mxCell>
        <mxCell id="LWq-43" value="108" style="whiteSpace=wrap;html=1;fillColor=#ffe6cc;strokeColor=#d79b00;fontColor=#333333;shape=actor" vertex="1" parent="node_root_LWq">
          <mxGeometry x="360" y="1895" width="40" height="50" as="geometry"/>
        </mxCell>
        <mxCell id="LWq-44" value="109" style="whiteSpace=wrap;html=1;fillColor=#dae8fc;strokeColor=#6c8ebf;fontColor=#333333;shape=actor" vertex="1" parent="node_root_LWq">
          <mxGeometry x="580" y="1895" width="40" height="50" as="geometry"/>
        </mxCell>
        <mxCell id="LWq-45" value="110" style="whiteSpace=wrap;html=1;fillColor=#dae8fc;strokeColor=#6c8ebf;fontColor=#333333;shape=actor" vertex="1" parent="node_root_LWq">
          <mxGeometry x="800" y="1895" width="40" height="50" as="geometry"/>
        </mxCell>
        <mxCell id="LWq-46" value="111" style="whiteSpace=wrap;html=1;fillColor=#d5e8d4;strokeColor=#82b366;fontColor=#333333;shape=actor" vertex="1" parent="node_root_LWq">
          <mxGeometry x="1020" y="1895" width="40" height="50" as="geometry"/>
        </mxCell>
        <mxCell id="LWq-47" value="112" style="whiteSpace=wrap;html=1;fillColor=#dae8fc;strokeColor=#6c8ebf;fontColor=#333333;shape=actor" vertex="1" parent="node_root_LWq">
          <mxGeometry x="140" y="2115" width="40" height="50" as="geometry"/>
        </mxCell>
      </root>
    </mxGraphModel>
  </diagram>
</mxfile>